<?xml version="1.0" encoding="UTF-8" standalone="no"?>
<!DOCTYPE svg PUBLIC "-//W3C//DTD SVG 1.1//EN"
 "http://www.w3.org/Graphics/SVG/1.1/DTD/svg11.dtd">
<!-- Generated by graphviz version 2.40.1 (20161225.0304)
 -->
<!-- Title: dependencies Pages: 1 -->
<svg width="880pt" height="211pt"
 viewBox="0.00 0.00 880.00 211.00" xmlns="http://www.w3.org/2000/svg" xmlns:xlink="http://www.w3.org/1999/xlink">
<g id="graph0" class="graph" transform="scale(1 1) rotate(0) translate(4 207)">
<title>dependencies</title>
<polygon fill="#ffffff" stroke="transparent" points="-4,4 -4,-207 876,-207 876,4 -4,4"/>
<text text-anchor="start" x="415.0091" y="-42.4" font-family="sans-serif" font-weight="bold" font-size="14.00" fill="#000000">Legend</text>
<polygon fill="#ffffb3" stroke="transparent" points="202,-10 202,-30 222,-30 222,-10 202,-10"/>
<text text-anchor="start" x="225.629" y="-15.4" font-family="sans-serif" font-size="14.00" fill="#000000"> &#160;Declarations</text>
<polygon fill="#8dd3c7" stroke="transparent" points="315,-10 315,-30 335,-30 335,-10 315,-10"/>
<text text-anchor="start" x="338.7251" y="-15.4" font-family="sans-serif" font-size="14.00" fill="#000000"> &#160;Module</text>
<polygon fill="#80b1d3" stroke="transparent" points="401,-10 401,-30 421,-30 421,-10 401,-10"/>
<text text-anchor="start" x="424.7812" y="-15.4" font-family="sans-serif" font-size="14.00" fill="#000000"> &#160;Bootstrap</text>
<polygon fill="#fdb462" stroke="transparent" points="498,-10 498,-30 518,-30 518,-10 498,-10"/>
<text text-anchor="start" x="521.6732" y="-15.4" font-family="sans-serif" font-size="14.00" fill="#000000"> &#160;Providers</text>
<polygon fill="#fb8072" stroke="transparent" points="594,-10 594,-30 614,-30 614,-10 594,-10"/>
<text text-anchor="start" x="617.7258" y="-15.4" font-family="sans-serif" font-size="14.00" fill="#000000"> &#160;Exports</text>
<g id="clust1" class="cluster">
<title>cluster_UserModule</title>
<polygon fill="none" stroke="#000000" stroke-dasharray="1,5" points="8,-70 8,-195 864,-195 864,-70 8,-70"/>
</g>
<g id="clust2" class="cluster">
<title>cluster_UserModule_declarations</title>
<polygon fill="none" stroke="#000000" points="156,-78 156,-130 856,-130 856,-78 156,-78"/>
</g>
<g id="clust11" class="cluster">
<title>cluster_UserModule_providers</title>
<polygon fill="none" stroke="#000000" points="16,-78 16,-130 148,-130 148,-78 16,-78"/>
</g>
<!-- AddUserComponent -->
<g id="node1" class="node">
<title>AddUserComponent</title>
<polygon fill="#ffffb3" stroke="#000000" points="847.8655,-122 716.1345,-122 716.1345,-86 847.8655,-86 847.8655,-122"/>
<text text-anchor="middle" x="782" y="-99.8" font-family="Times,serif" font-size="14.00" fill="#000000">AddUserComponent</text>
</g>
<!-- UserModule -->
<g id="node6" class="node">
<title>UserModule</title>
<polygon fill="#8dd3c7" stroke="#000000" points="457.9762,-187 454.9762,-191 433.9762,-191 430.9762,-187 372.0238,-187 372.0238,-151 457.9762,-151 457.9762,-187"/>
<text text-anchor="middle" x="415" y="-164.8" font-family="Times,serif" font-size="14.00" fill="#000000">UserModule</text>
</g>
<!-- AddUserComponent&#45;&gt;UserModule -->
<g id="edge1" class="edge">
<title>AddUserComponent&#45;&gt;UserModule</title>
<path fill="none" stroke="#000000" d="M782,-122.2843C782,-143.3211 782,-175 782,-175 782,-175 468.1788,-175 468.1788,-175"/>
<polygon fill="#000000" stroke="#000000" points="468.1788,-171.5001 458.1788,-175 468.1787,-178.5001 468.1788,-171.5001"/>
</g>
<!-- EditUserComponent -->
<g id="node2" class="node">
<title>EditUserComponent</title>
<polygon fill="#ffffb3" stroke="#000000" points="698.5926,-122 567.4074,-122 567.4074,-86 698.5926,-86 698.5926,-122"/>
<text text-anchor="middle" x="633" y="-99.8" font-family="Times,serif" font-size="14.00" fill="#000000">EditUserComponent</text>
</g>
<!-- EditUserComponent&#45;&gt;UserModule -->
<g id="edge2" class="edge">
<title>EditUserComponent&#45;&gt;UserModule</title>
<path fill="none" stroke="#000000" d="M633,-122.0225C633,-139.3734 633,-163 633,-163 633,-163 468.0698,-163 468.0698,-163"/>
<polygon fill="#000000" stroke="#000000" points="468.0698,-159.5001 458.0698,-163 468.0697,-166.5001 468.0698,-159.5001"/>
</g>
<!-- ListUserComponent -->
<g id="node3" class="node">
<title>ListUserComponent</title>
<polygon fill="#ffffb3" stroke="#000000" points="549.538,-122 420.462,-122 420.462,-86 549.538,-86 549.538,-122"/>
<text text-anchor="middle" x="485" y="-99.8" font-family="Times,serif" font-size="14.00" fill="#000000">ListUserComponent</text>
</g>
<!-- ListUserComponent&#45;&gt;UserModule -->
<g id="edge3" class="edge">
<title>ListUserComponent&#45;&gt;UserModule</title>
<path fill="none" stroke="#000000" d="M439.1098,-122.1061C439.1098,-122.1061 439.1098,-140.991 439.1098,-140.991"/>
<polygon fill="#000000" stroke="#000000" points="435.6098,-140.9909 439.1098,-150.991 442.6098,-140.991 435.6098,-140.9909"/>
</g>
<!-- LoginComponent -->
<g id="node4" class="node">
<title>LoginComponent</title>
<polygon fill="#ffffb3" stroke="#000000" points="402.2758,-122 287.7242,-122 287.7242,-86 402.2758,-86 402.2758,-122"/>
<text text-anchor="middle" x="345" y="-99.8" font-family="Times,serif" font-size="14.00" fill="#000000">LoginComponent</text>
</g>
<!-- LoginComponent&#45;&gt;UserModule -->
<g id="edge4" class="edge">
<title>LoginComponent&#45;&gt;UserModule</title>
<path fill="none" stroke="#000000" d="M387.1998,-122.1061C387.1998,-122.1061 387.1998,-140.991 387.1998,-140.991"/>
<polygon fill="#000000" stroke="#000000" points="383.6999,-140.9909 387.1998,-150.991 390.6999,-140.991 383.6999,-140.9909"/>
</g>
<!-- SearchUserPipe -->
<g id="node5" class="node">
<title>SearchUserPipe</title>
<polygon fill="#ffffb3" stroke="#000000" points="269.902,-122 164.098,-122 164.098,-86 269.902,-86 269.902,-122"/>
<text text-anchor="middle" x="217" y="-99.8" font-family="Times,serif" font-size="14.00" fill="#000000">SearchUserPipe</text>
</g>
<!-- SearchUserPipe&#45;&gt;UserModule -->
<g id="edge5" class="edge">
<title>SearchUserPipe&#45;&gt;UserModule</title>
<path fill="none" stroke="#000000" d="M217,-122.0225C217,-139.3734 217,-163 217,-163 217,-163 361.5481,-163 361.5481,-163"/>
<polygon fill="#000000" stroke="#000000" points="361.5481,-166.5001 371.5481,-163 361.548,-159.5001 361.5481,-166.5001"/>
</g>
<!-- UserService -->
<g id="node7" class="node">
<title>UserService</title>
<ellipse fill="#fdb462" stroke="#000000" cx="82" cy="-104" rx="58.4415" ry="18"/>
<text text-anchor="middle" x="82" y="-99.8" font-family="Times,serif" font-size="14.00" fill="#000000">UserService</text>
</g>
<!-- UserService&#45;&gt;UserModule -->
<g id="edge6" class="edge">
<title>UserService&#45;&gt;UserModule</title>
<path fill="none" stroke="#000000" d="M82,-122.2843C82,-143.3211 82,-175 82,-175 82,-175 361.8075,-175 361.8075,-175"/>
<polygon fill="#000000" stroke="#000000" points="361.8075,-178.5001 371.8075,-175 361.8074,-171.5001 361.8075,-178.5001"/>
</g>
</g>
</svg>
